<svg xmlns="http://www.w3.org/2000/svg" width="173.908" height="313.838" viewBox="0 0 173.908 313.838">
  <g id="Group_153" data-name="Group 153" transform="translate(-653.546 442.097)">
    <g id="Group_152" data-name="Group 152">
      <g id="Group_1" data-name="Group 1" transform="translate(653.546 -442.097)">
        <g id="Group_151" data-name="Group 151">
          <path id="Path_401" data-name="Path 401" d="M298.611,238.145V141.272A34.581,34.581,0,0,0,264.039,106.7v61.581A86.079,86.079,0,0,1,298.611,236.7v1.44a85.717,85.717,0,0,0-40.694-69.864c-40.694-25.209-93.992-12.6-118.84,27.729-23.048,37.093-14.405,84.629,18.006,112-13.684,10.8-23.048,27.009-23.768,45.736a62.068,62.068,0,0,0,61.941,64.462h64.462v-2.161s-2.161-25.568-31.331-31.331a23.829,23.829,0,0,0-5.4-.36H195.976c-15.125,0-28.09-11.164-29.17-26.289a28.111,28.111,0,0,1,28.089-29.89h15.125a115.347,115.347,0,0,1-5.762-14.045,131.036,131.036,0,0,1-5.762-22.687,64.938,64.938,0,0,1-13.685-5.762,52.088,52.088,0,0,1-23.048-55.459,41.785,41.785,0,0,1,6.482-15.485,46.852,46.852,0,0,1,11.164-12.6,51.4,51.4,0,0,1,59.78-3.961c1.44,1.08,2.881,1.8,4.321,2.881a51.509,51.509,0,0,1,18.727,29.17,50.787,50.787,0,0,1-6.482,38.533A53.263,53.263,0,0,1,224.065,291.8a57.819,57.819,0,0,1-24.849,0h-.36a273.566,273.566,0,0,0,15.485,36.732,86.425,86.425,0,0,0,71.3-40.694C295.009,272,299.331,255.07,298.611,238.145Z" transform="translate(-126.095 -106.7)" fill="#f5f5f5"/>
          <circle id="Ellipse_1" data-name="Ellipse 1" cx="16.406" cy="16.406" r="16.406" transform="translate(141.095 281.025)" fill="#ff3939"/>
        </g>
      </g>
    </g>
  </g>
</svg>
