<svg xmlns="http://www.w3.org/2000/svg" width="18.587" height="17.787" viewBox="0 0 18.587 17.787">
  <g id="Group_226" data-name="Group 226" transform="translate(-6243.946 -108)">
    <path id="Path_419" data-name="Path 419" d="M22.409,13.618,13.515,5.111a.387.387,0,0,0-.534,0L4.087,13.618a.387.387,0,1,0,.534.557l8.627-8.252,8.627,8.252a.386.386,0,1,0,.534-.557Z" transform="translate(6240 102.996)" fill="#f5f5f5"/>
    <path id="Path_420" data-name="Path 420" d="M23.535,29a.387.387,0,0,0-.387.387v7.347H19.281V32.48a.387.387,0,0,0-.387-.387H15.027a.387.387,0,0,0-.387.387v4.254H10.773V29.387a.387.387,0,0,0-.773,0v7.734a.387.387,0,0,0,.387.387h4.64a.387.387,0,0,0,.387-.387V32.867h3.094v4.254a.387.387,0,0,0,.387.387h4.64a.387.387,0,0,0,.387-.387V29.387A.387.387,0,0,0,23.535,29Z" transform="translate(6236.287 88.279)" fill="#f5f5f5"/>
  </g>
</svg>
