<svg id="Group_41" data-name="Group 41" xmlns="http://www.w3.org/2000/svg" width="14.585" height="14.175" viewBox="0 0 14.585 14.175">
  <g id="Group_40" data-name="Group 40">
    <g id="Group_39" data-name="Group 39" transform="translate(0 0)">
      <g id="Group_38" data-name="Group 38">
        <g id="Group_37" data-name="Group 37">
          <g id="Group_35" data-name="Group 35">
            <g id="Group_34" data-name="Group 34">
              <rect id="Rectangle_145" data-name="Rectangle 145" width="3.012" height="9.31" transform="translate(0.289 4.865)" fill="#fff"/>
              <path id="Path_245" data-name="Path 245" d="M1.781,3.591A1.8,1.8,0,1,0,0,1.8,1.789,1.789,0,0,0,1.781,3.591Z" fill="#fff"/>
            </g>
            <path id="Path_246" data-name="Path 246" d="M2.888,4.919c0-1.368.63-2.185,1.834-2.185,1.109,0,1.639.783,1.639,2.185V9.561l3,.047V3.866C9.359,1.262,7.882,0,5.82,0A3.394,3.394,0,0,0,2.888,1.608V.3H0V9.608H2.888Z" transform="translate(5.225 4.567)" fill="#fff"/>
          </g>
        </g>
      </g>
    </g>
  </g>
</svg>
