<svg xmlns="http://www.w3.org/2000/svg" width="14.599" height="11.948" viewBox="0 0 14.599 11.948">
  <path id="twitter" d="M5.447,11.949A12.527,12.527,0,0,1,3.512,11.8a9.08,9.08,0,0,1-2.647-.963L0,10.359l.936-.308c1.024-.337,1.646-.545,2.417-.872A3.216,3.216,0,0,1,1.7,7.263L1.483,6.6l.179.027a3.249,3.249,0,0,1-.407-.5A3.08,3.08,0,0,1,.732,4.3l.041-.577.346.134a3.231,3.231,0,0,1-.313-.878A3.34,3.34,0,0,1,1.162.727l.3-.553.4.484a7.41,7.41,0,0,0,4.8,2.7A2.871,2.871,0,0,1,6.84,1.835,2.856,2.856,0,0,1,8,.5a3.488,3.488,0,0,1,2.024-.5,3.233,3.233,0,0,1,1.987.82A6.671,6.671,0,0,0,12.74.584c.159-.06.34-.128.567-.206L14.141.09,13.6,1.644l.111-.007L14.6,1.6l-.526.719c-.03.041-.038.053-.049.069-.042.064-.1.143-.818,1.108a1.361,1.361,0,0,0-.254.886,8.382,8.382,0,0,1-.457,3.371,5.966,5.966,0,0,1-1.6,2.372,7.073,7.073,0,0,1-3.353,1.621,10.321,10.321,0,0,1-2.094.205Zm0,0" transform="translate(0 0)" fill="#fff"/>
</svg>
